<svg width="24" height="24" viewBox="0 0 24 24" fill="none" xmlns="http://www.w3.org/2000/svg">
<rect width="24" height="24" rx="12" fill="#D9D9D9"/>
<path d="M9.50089 12C9.50089 10.6193 10.6198 9.4998 12.0005 9.4998C13.3811 9.4998 14.5007 10.6193 14.5007 12C14.5007 13.3807 13.3811 14.5002 12.0005 14.5002C10.6198 14.5002 9.50089 13.3807 9.50089 12ZM8.14933 12C8.14933 14.127 9.87349 15.8512 12.0005 15.8512C14.1275 15.8512 15.8516 14.127 15.8516 12C15.8516 9.873 14.1275 8.14884 12.0005 8.14884C9.87349 8.14884 8.14933 9.873 8.14933 12ZM15.1041 7.99614C15.104 8.17414 15.1567 8.34817 15.2556 8.49621C15.3544 8.64426 15.4949 8.75967 15.6594 8.82785C15.8238 8.89604 16.0047 8.91393 16.1793 8.87928C16.3539 8.84462 16.5143 8.75897 16.6402 8.63315C16.7662 8.50733 16.8519 8.347 16.8867 8.17243C16.9215 7.99787 16.9038 7.8169 16.8357 7.65242C16.7677 7.48794 16.6524 7.34733 16.5044 7.24838C16.3565 7.14943 16.1825 7.09657 16.0045 7.0965H16.0041C15.7655 7.09661 15.5367 7.19142 15.368 7.3601C15.1992 7.52878 15.1043 7.75754 15.1041 7.99614ZM8.97049 18.1048C8.23927 18.0715 7.84183 17.9497 7.57771 17.8468C7.22755 17.7105 6.97771 17.5481 6.71503 17.2858C6.45235 17.0235 6.28975 16.7739 6.15403 16.4237C6.05107 16.1597 5.92927 15.7622 5.89603 15.031C5.85967 14.2404 5.85241 14.0029 5.85241 12.0001C5.85241 9.9972 5.86027 9.76038 5.89603 8.96916C5.92933 8.23794 6.05203 7.84116 6.15403 7.57638C6.29035 7.22622 6.45271 6.97638 6.71503 6.7137C6.97735 6.45102 7.22695 6.28842 7.57771 6.1527C7.84171 6.04974 8.23927 5.92794 8.97049 5.8947C9.76105 5.85834 9.99853 5.85108 12.0005 5.85108C14.0024 5.85108 14.2402 5.85894 15.0314 5.8947C15.7626 5.928 16.1594 6.0507 16.4242 6.1527C16.7743 6.28842 17.0242 6.45138 17.2868 6.7137C17.5495 6.97602 17.7115 7.22622 17.8478 7.57638C17.9508 7.84038 18.0726 8.23794 18.1058 8.96916C18.1422 9.76038 18.1495 9.9972 18.1495 12.0001C18.1495 14.0029 18.1422 14.2397 18.1058 15.031C18.0725 15.7622 17.9501 16.1596 17.8478 16.4237C17.7115 16.7739 17.5492 17.0237 17.2868 17.2858C17.0245 17.5479 16.7743 17.7105 16.4242 17.8468C16.1602 17.9498 15.7626 18.0716 15.0314 18.1048C14.2408 18.1412 14.0033 18.1484 12.0005 18.1484C9.99763 18.1484 9.76081 18.1412 8.97049 18.1048ZM8.90839 4.54542C8.10997 4.58178 7.56439 4.70838 7.08793 4.89378C6.59449 5.08524 6.17677 5.3421 5.75935 5.75886C5.34193 6.17562 5.08573 6.594 4.89427 7.08744C4.70887 7.5642 4.58227 8.10948 4.54591 8.9079C4.50895 9.70758 4.50049 9.96324 4.50049 12C4.50049 14.0368 4.50895 14.2924 4.54591 15.0921C4.58227 15.8906 4.70887 16.4358 4.89427 16.9126C5.08573 17.4057 5.34199 17.8246 5.75935 18.2411C6.17671 18.6577 6.59449 18.9142 7.08793 19.1062C7.56529 19.2916 8.10997 19.4182 8.90839 19.4546C9.70849 19.4909 9.96373 19.5 12.0005 19.5C14.0372 19.5 14.2929 19.4915 15.0926 19.4546C15.8911 19.4182 16.4363 19.2916 16.913 19.1062C17.4062 18.9142 17.8242 18.6579 18.2416 18.2411C18.659 17.8244 18.9147 17.4057 19.1067 16.9126C19.2921 16.4358 19.4193 15.8905 19.4551 15.0921C19.4914 14.2918 19.4999 14.0368 19.4999 12C19.4999 9.96324 19.4914 9.70758 19.4551 8.9079C19.4187 8.10942 19.2921 7.5639 19.1067 7.08744C18.9147 6.5943 18.6584 6.17628 18.2416 5.75886C17.8249 5.34144 17.4062 5.08524 16.9136 4.89378C16.4363 4.70838 15.891 4.58118 15.0932 4.54542C14.2935 4.50906 14.0378 4.5 12.0011 4.5C9.96433 4.5 9.70849 4.50846 8.90839 4.54542Z" fill="white"/>
</svg>
